<?xml version="1.0" encoding="UTF-8"?>
<svg xmlns="http://www.w3.org/2000/svg" width="108" height="74" viewBox="0 0 108 74" fill="none">
  <path d="M0.376867 57.712C9.32753 51.1133 16.4815 45.07 21.8389 39.582C27.1962 34.0287 29.8749 29.0307 29.8749 24.588C29.8749 20.276 28.1435 18.12 24.6809 18.12C22.7209 18.12 21.2835 18.8713 20.3689 20.374C19.5195 21.8767 19.0622 24.3593 18.9969 27.822H0.278867C0.670867 19.1327 3.2842 12.6647 8.11887 8.418C12.9535 4.106 18.9969 1.95 26.2489 1.95C34.1542 1.95 40.0015 3.91 43.7909 7.83C47.5802 11.75 49.4749 16.7153 49.4749 22.726C49.4749 29.194 47.1555 35.4007 42.5169 41.346C37.9435 47.2913 32.2922 52.3547 25.5629 56.536H50.4549V72.118H0.376867V57.712ZM82.4427 0.185997C87.4733 0.185997 91.7527 1.068 95.2807 2.832C98.874 4.53066 101.585 6.88266 103.415 9.88799C105.244 12.828 106.159 16.16 106.159 19.884C106.159 24.392 105.048 28.018 102.827 30.762C100.605 33.4407 97.9593 35.1393 94.8887 35.858V36.25C103.251 39.2553 107.433 44.8087 107.433 52.91C107.433 57.026 106.485 60.652 104.591 63.788C102.696 66.924 99.952 69.374 96.3587 71.138C92.8307 72.8367 88.584 73.686 83.6187 73.686C75.3867 73.686 68.886 71.6933 64.1167 67.708C59.4127 63.7227 56.93 57.5487 56.6687 49.186H75.4847C75.354 54.87 77.804 57.712 82.8347 57.712C84.5987 57.712 86.0033 57.1567 87.0487 56.046C88.1593 54.87 88.7147 53.3673 88.7147 51.538C88.7147 49.186 87.898 47.422 86.2647 46.246C84.6967 45.07 82.1487 44.482 78.6207 44.482H75.1907V28.9H78.5227C81.0707 28.9 83.194 28.4753 84.8927 27.626C86.5913 26.7113 87.4407 24.9147 87.4407 22.236C87.4407 20.2107 86.9507 18.708 85.9707 17.728C84.9907 16.6827 83.684 16.16 82.0507 16.16C80.2213 16.16 78.8167 16.8787 77.8367 18.316C76.922 19.688 76.3993 21.452 76.2687 23.608H57.5507C57.812 16.0293 60.066 10.2473 64.3127 6.26199C68.6247 2.21133 74.668 0.185997 82.4427 0.185997Z" fill="black"></path>
</svg>
