<svg width="24" height="20" viewBox="0 0 24 20" fill="none" xmlns="http://www.w3.org/2000/svg">
<path d="M11.9887 3.20669C8.48007 3.20669 4.97139 3.20796 1.46271 3.20573C0.587901 3.20516 -0.010572 2.63252 0.00417274 1.82376C0.0168557 1.12622 0.555662 0.550774 1.23935 0.505981C1.32239 0.500509 1.40586 0.500255 1.48908 0.500255C8.496 0.5 15.5029 0.499745 22.5099 0.500509C23.2905 0.500573 23.7921 0.86191 23.9603 1.53667C24.1579 2.32902 23.5949 3.13352 22.7956 3.1974C22.661 3.20815 22.5251 3.20631 22.3898 3.20631C18.9227 3.20681 15.4557 3.20669 11.9887 3.20669Z" fill="black"/>
<path d="M8.00514 8.64622C10.2016 8.64628 12.3981 8.6438 14.5945 8.64775C15.31 8.64902 15.8116 9.04293 15.9673 9.703C16.151 10.4817 15.5909 11.2748 14.8076 11.3432C14.7144 11.3513 14.6204 11.3524 14.5268 11.3524C10.1755 11.3528 5.82424 11.3534 1.47293 11.3521C0.741314 11.352 0.243493 11.0075 0.0617457 10.3875C-0.185415 9.5445 0.396438 8.70024 1.25969 8.65125C1.3739 8.64476 1.48861 8.64635 1.60313 8.64628C3.73711 8.64603 5.87116 8.64609 8.00514 8.64622Z" fill="black"/>
<path d="M4.64977 19.4952C3.52548 19.4949 2.40101 19.5043 1.27685 19.491C0.719929 19.4844 0.249411 19.1097 0.0747236 18.5864C-0.105649 18.046 0.0418604 17.4356 0.502757 17.1045C0.727926 16.9427 1.03082 16.8106 1.29997 16.8078C3.54835 16.7847 5.79717 16.7866 8.04573 16.7995C8.78765 16.8038 9.33352 17.4081 9.32883 18.1569C9.32427 18.8886 8.78091 19.4795 8.05386 19.4908C6.91939 19.5084 5.78448 19.4954 4.64977 19.4952Z" fill="black"/>
</svg>
