<svg width="93" height="71" viewBox="0 0 93 71" fill="none" xmlns="http://www.w3.org/2000/svg">
<path d="M43.6246 66.5722C42.1111 65.3456 40.7071 64.0875 39.1835 62.9953C34.3517 59.5317 28.9001 57.5515 23.0534 56.7001C20.2185 56.2871 17.3409 56.1454 14.4781 55.9505C12.2621 55.7995 10.9531 54.4998 10.9526 52.263C10.9492 36.0533 10.9488 19.8435 10.953 3.63358C10.9535 1.4093 12.3702 -0.0274887 14.5089 0.0227613C19.2869 0.134926 23.9917 0.703469 28.5356 2.27827C34.5133 4.35 39.4656 7.78297 42.9189 13.1545C43.348 13.8218 43.6413 14.7099 43.6432 15.4967C43.6834 32.4241 43.6734 49.3517 43.671 66.2793C43.671 66.3637 43.645 66.4484 43.6246 66.5722Z" fill="black"/>
<path d="M48.7472 66.7422C48.7472 66.1986 48.7472 65.8724 48.7472 65.5463C48.7472 49.1269 48.7776 32.7076 48.7105 16.2885C48.7017 14.1265 49.7441 12.6104 50.9614 11.095C55.4614 5.49324 61.4893 2.43804 68.3989 1.07985C71.5241 0.465544 74.7438 0.288054 77.9308 0.0436232C79.991 -0.114485 81.4647 1.38996 81.4658 3.46978C81.4746 19.7992 81.4743 36.1289 81.4662 52.4583C81.4653 54.4875 80.0996 55.7809 78.0186 55.9475C74.8312 56.2027 71.6191 56.3487 68.4724 56.8706C61.261 58.0664 54.8112 60.9488 49.4892 66.082C49.3018 66.2629 49.1003 66.4291 48.7472 66.7422Z" fill="black"/>
<path d="M38.7896 69.2455C35.9174 68.8523 33.0888 68.2615 30.2382 68.1236C26.2061 67.9289 22.1527 67.9377 18.118 68.1001C13.4785 68.2869 8.91685 69.16 4.36981 70.1003C1.81172 70.6291 0.154115 69.1175 0.153935 66.4785C0.152316 49.3693 0.152676 32.26 0.153755 15.1506C0.153935 12.6808 1.42228 11.4278 3.92317 11.4172C4.52073 11.4147 5.11812 11.4169 5.85419 11.4169C5.85419 11.8515 5.85419 12.2272 5.85419 12.6028C5.85419 25.7038 5.86319 38.8051 5.84574 51.9062C5.84268 54.162 6.32692 56.2165 7.82641 57.9746C9.45164 59.8801 11.5098 60.8962 14.0037 60.9777C17.9321 61.1062 21.833 61.4312 25.6507 62.4251C30.1313 63.5916 34.281 65.4363 37.8689 68.4165C38.1873 68.681 38.485 68.9702 38.7896 69.2455Z" fill="black"/>
<path d="M86.5665 11.4385C87.5985 11.4385 88.4992 11.3852 89.391 11.4503C90.8914 11.56 92.1292 12.8832 92.2562 14.4282C92.2733 14.6364 92.267 14.8467 92.267 15.056C92.2674 32.2255 92.2686 49.3952 92.2659 66.5647C92.2655 69.0894 90.6428 70.4941 88.1423 70.1237C87.4048 70.0144 86.6817 69.8123 85.9485 69.67C79.1078 68.3423 72.223 67.6108 65.2357 67.9075C61.3369 68.0729 57.4929 68.5401 53.5781 69.2353C54.4703 68.5257 55.3285 67.7675 56.2609 67.1148C60.5072 64.1418 65.2765 62.4579 70.367 61.7163C73.0569 61.3245 75.7848 61.1555 78.5019 60.9958C82.8642 60.7393 86.2793 57.4169 86.5225 53.0758C86.5509 52.5687 86.5642 52.0599 86.5644 51.552C86.5666 38.6001 86.5662 25.6481 86.5662 12.6962C86.5666 12.3132 86.5665 11.9299 86.5665 11.4385Z" fill="black"/>
</svg>
