<svg width="106" height="64" viewBox="0 0 106 64" fill="none" xmlns="http://www.w3.org/2000/svg">
<path d="M103.348 50.0182C104.628 53.0769 105.28 56.2025 105.675 59.3889C105.943 61.5542 104.686 63.402 102.615 63.8988C100.727 64.3517 98.5685 63.2513 98.0782 61.3549C97.8098 60.3167 97.8211 59.1257 98.0292 58.0657C98.5593 55.3673 99.271 52.7038 99.9415 49.8943C99.0173 49.3023 98.0776 48.4342 97.8956 46.9819C97.7002 45.4226 98.2588 44.2395 99.4715 43.2693C99.7379 43.0562 99.9805 42.6318 99.9819 42.3037C100.01 35.1717 100.004 28.0396 100.001 20.9076C100.001 20.7434 99.9671 20.5791 99.9363 20.2987C99.5401 20.4392 99.1947 20.5526 98.8556 20.6829C83.9229 26.4272 68.989 32.1682 54.0625 37.9279C52.8876 38.3813 51.7771 38.4072 50.6012 37.9539C34.3391 31.684 18.072 25.4272 1.80622 19.1673C1.67918 19.1184 1.52096 19.1008 1.43086 19.0142C1.1575 18.752 0.690826 18.4459 0.711348 18.189C0.734333 17.9021 1.17146 17.5874 1.49653 17.4002C1.8725 17.1837 2.32256 17.0928 2.74039 16.9472C18.5892 11.4242 34.4415 5.91087 50.2806 0.36146C51.6797 -0.128617 52.944 -0.116654 54.3459 0.374843C70.3447 5.98346 86.3587 11.5493 102.368 17.1275C102.722 17.2508 103.164 17.3 103.396 17.5421C103.64 17.7964 103.782 18.2411 103.782 18.6024C103.782 19.0406 103.49 19.4783 103.488 19.9167C103.468 27.2516 103.48 34.5866 103.464 41.9213C103.462 42.5712 103.595 43.0097 104.185 43.4353C106.247 44.923 106.175 48.0533 104.106 49.5306C103.887 49.6871 103.653 49.823 103.348 50.0182Z" fill="black"/>
<path d="M16.8815 28.6441C21.0872 30.2566 25.182 31.8232 29.274 33.3968C36.3253 36.1086 43.3835 38.8035 50.4175 41.558C51.7107 42.0643 52.8533 42.0688 54.1541 41.5639C65.0036 37.3529 75.8737 33.1933 86.7384 29.0198C87.0475 28.9012 87.3638 28.8006 87.8233 28.6406C87.8233 29.1088 87.8235 29.4644 87.8233 29.8199C87.8212 33.2328 87.7014 36.6504 87.844 40.0574C88.0677 45.3998 85.5629 49.292 81.4736 52.4016C76.5267 56.1632 70.7956 58.1683 64.7848 59.4824C60.4052 60.4399 55.9606 61.0555 51.4728 60.8981C43.1372 60.6059 35.0701 59.0617 27.5924 55.2202C24.0679 53.4095 20.9171 51.1238 18.715 47.7579C17.7174 46.2329 16.9476 44.5719 16.9121 42.7655C16.8204 38.1076 16.8815 33.4463 16.8815 28.6441Z" fill="black"/>
</svg>
