<svg width="62" height="134" viewBox="0 0 62 134" fill="none" xmlns="http://www.w3.org/2000/svg">
<g clip-path="url(#clip0_216_353)">
<path d="M14.4128 53.8665C13.0915 56.6772 11.8194 59.5134 10.4328 62.29C9.40049 64.3571 8.29573 66.396 7.08192 68.3568C5.9595 70.1699 3.60984 70.6079 1.85234 69.5085C0.142509 68.439 -0.495745 66.2161 0.413563 64.3447C4.04632 56.8678 7.67197 49.3872 11.3479 41.9323C12.3423 39.9156 13.141 37.588 15.3181 36.6036C17.9818 35.3995 20.7284 34.2669 23.5501 33.5698C29.3128 32.1458 34.8733 33.2561 40.1674 35.7918C41.1186 36.2475 41.6119 36.0778 42.2879 35.3778C46.8012 30.7035 49.0974 25.0687 49.4404 18.5609C49.4591 18.2046 49.4857 17.8485 49.516 17.493C49.5176 17.4731 49.5855 17.4591 49.7438 17.3877C49.9712 17.8799 50.2172 18.3735 50.4308 18.8813C51.7763 22.08 53.055 25.3101 54.4903 28.4661C54.9518 29.4806 54.891 30.2513 54.4653 31.2142C52.0042 36.7797 48.2874 41.2695 43.3847 44.7338C42.6111 45.2806 42.2315 45.8101 42.3108 46.7832C42.3974 47.8501 42.3922 48.9344 42.3203 50.0037C41.8999 56.2709 42.9775 62.3619 44.2224 68.4572C45.8732 76.5389 47.3499 84.6576 48.9628 92.7475C49.1335 93.6039 48.8985 93.9226 48.2318 94.2916C35.094 101.563 21.9691 101.53 8.82151 94.3093C8.02889 93.874 7.93485 93.3595 8.08684 92.5861C9.26563 86.5915 10.4289 80.5939 11.5997 74.5977C12.5997 69.4771 13.686 64.3719 14.559 59.229C14.8519 57.5029 14.6053 55.6817 14.6053 53.9041C14.5413 53.8917 14.477 53.8791 14.4128 53.8665Z" fill="black"/>
<path d="M46.9899 8.81886C44.597 9.89324 42.5442 10.8868 40.4337 11.7305C39.4451 12.1258 39.1375 12.6725 39.1907 13.7203C39.2792 15.4609 39.182 17.2104 39.2297 18.9545C39.2499 19.6937 39.0305 20.0702 38.3119 20.2968C31.4787 22.4502 24.6897 22.4021 17.8066 19.937C17.8066 17.7735 17.7669 15.5869 17.8267 13.4032C17.8498 12.5584 17.6009 12.0874 16.8136 11.8057C15.8766 11.4703 14.9752 11.0318 13.8494 10.5485C13.8494 12.5517 13.8494 14.3624 13.8494 16.1733C13.8494 16.5761 13.852 16.9789 13.8486 17.3817C13.8425 18.1411 13.9668 19.053 12.8568 19.0466C11.8147 19.0404 11.9449 18.1553 11.9406 17.4539C11.9283 15.4402 11.8648 13.4228 11.9617 11.4139C12.0231 10.1416 11.8432 9.19077 10.0875 8.98776C10.6396 8.64834 10.8981 8.44748 11.1873 8.31805C16.6766 5.85941 22.1662 3.40237 27.6678 0.97407C28.0719 0.795768 28.6509 0.650494 29.0134 0.809462C34.911 3.40049 40.7864 6.04335 46.9899 8.81886Z" fill="black"/>
<path d="M13.7147 99.2756C17.5097 100.178 21.2386 101.065 25.0731 101.977C24.0748 105.878 23.0464 109.914 22.0088 113.947C20.7002 119.034 19.4047 124.123 18.0634 129.2C17.26 132.241 14.8742 133.91 11.7654 133.703C9.1747 133.53 6.96808 131.365 6.58586 128.488C6.48313 127.716 6.58296 126.871 6.77657 126.109C9.03483 117.223 11.3284 108.346 13.6169 99.4676C13.6475 99.3481 13.732 99.2428 13.7147 99.2756Z" fill="black"/>
<path d="M30.6526 102.058C34.5385 101.279 38.2179 100.54 42.0819 99.7646C42.3116 101.598 42.5777 103.61 42.8137 105.625C43.5926 112.276 44.3623 118.928 45.1325 125.579C45.372 127.648 45.4815 129.687 44.0915 131.466C42.6259 133.341 40.2209 134.165 37.9718 133.528C35.5434 132.84 33.9134 130.902 33.6218 128.383C32.6727 120.179 31.7157 111.975 30.7693 103.771C30.6984 103.156 30.6839 102.535 30.6526 102.058Z" fill="black"/>
<path d="M59.0963 29.809C57.6265 29.8018 56.7941 28.9497 56.248 27.6474C53.9819 22.2413 51.6962 16.8434 49.4187 11.4422C48.7802 9.92823 48.1217 8.42232 47.5134 6.89574C46.7933 5.08827 47.3997 3.37775 48.943 2.73623C50.5393 2.0727 52.1016 2.77195 52.8739 4.58666C55.8308 11.5327 58.78 18.4822 61.6915 25.4481C62.6311 27.6957 61.3251 29.813 59.0963 29.809Z" fill="black"/>
<path d="M18.4159 22.542C26.5222 24.7643 31.5753 24.4657 38.4457 22.5764C38.6765 25.9971 34.171 30.2633 29.7617 30.799C24.4995 31.4386 19.4298 27.7952 18.4159 22.542Z" fill="black"/>
</g>
<defs>
<clipPath id="clip0_216_353">
<rect width="62" height="133" fill="white" transform="translate(0 0.741211)"/>
</clipPath>
</defs>
</svg>
